<?xml version="1.0" encoding="utf-8"?>
<!-- Generator: Adobe Illustrator 17.0.0, SVG Export Plug-In . SVG Version: 6.00 Build 0)  -->
<!DOCTYPE svg PUBLIC "-//W3C//DTD SVG 1.1//EN" "http://www.w3.org/Graphics/SVG/1.1/DTD/svg11.dtd">
<svg version="1.1" id="Layer_1" xmlns="http://www.w3.org/2000/svg" xmlns:xlink="http://www.w3.org/1999/xlink" x="0px" y="0px"
	 width="595.28px" height="428.602px" viewBox="0 0 595.28 428.602" enable-background="new 0 0 595.28 428.602"
	 xml:space="preserve">
<path d="M547.658,0H137.456c-6.578,0-12.447,5.334-12.447,11.906v357.376c0,19.579-15.388,35.508-34.967,35.508h-0.958
	c-19.579,0-35.508-15.93-35.508-35.508V59.528c0-6.572-5.334-11.906-11.906-11.906s-11.906,5.334-11.906,11.906v309.754
	c0,32.711,26.609,59.32,59.32,59.32h0.958c1.208,0,2.405-0.036,3.595-0.107c0.524,0.071,1.06,0.107,1.607,0.107h404.79
	c32.824,0,59.528-26.609,59.528-59.32V11.906C559.563,5.334,554.229,0,547.658,0z M535.752,369.282
	c0,19.579-16.019,35.508-35.717,35.508H137.533c7.423-9.905,11.287-22.198,11.287-35.508V23.811h386.932V369.282z"/>
<path d="M77.386,35.717v327.404c0,6.572,5.334,11.906,11.906,11.906s11.906-5.334,11.906-11.906V35.717
	c0-6.572-5.334-11.906-11.906-11.906S77.386,29.145,77.386,35.717z"/>
<path d="M196.442,226.206H488.13c6.572,0,11.906-5.334,11.906-11.906v-95.245c0-6.572-5.334-11.906-11.906-11.906H196.442
	c-6.572,0-11.906,5.334-11.906,11.906v95.245C184.537,220.873,189.871,226.206,196.442,226.206z M208.348,130.962h267.876v71.434
	H208.348V130.962z"/>
<path d="M196.442,273.829h119.056c6.572,0,11.906-5.334,11.906-11.906c0-6.572-5.334-11.906-11.906-11.906H196.442
	c-6.572,0-11.906,5.334-11.906,11.906C184.537,268.495,189.871,273.829,196.442,273.829z"/>
<path d="M196.442,83.339H488.13c6.572,0,11.906-5.334,11.906-11.906s-5.334-11.906-11.906-11.906H196.442
	c-6.572,0-11.906,5.334-11.906,11.906S189.871,83.339,196.442,83.339z"/>
<path d="M196.442,321.451h119.056c6.572,0,11.906-5.334,11.906-11.906s-5.334-11.906-11.906-11.906H196.442
	c-6.572,0-11.906,5.334-11.906,11.906S189.871,321.451,196.442,321.451z"/>
<path d="M196.442,369.074h89.292c6.572,0,11.906-5.334,11.906-11.906s-5.334-11.906-11.906-11.906h-89.292
	c-6.572,0-11.906,5.334-11.906,11.906S189.871,369.074,196.442,369.074z"/>
<path d="M482.177,250.018H363.121c-6.572,0-11.906,5.334-11.906,11.906c0,6.572,5.334,11.906,11.906,11.906h119.056
	c6.572,0,11.906-5.334,11.906-11.906C494.082,255.351,488.749,250.018,482.177,250.018z"/>
<path d="M482.177,297.64H363.121c-6.572,0-11.906,5.334-11.906,11.906s5.334,11.906,11.906,11.906h119.056
	c6.572,0,11.906-5.334,11.906-11.906S488.749,297.64,482.177,297.64z"/>
<path d="M452.413,345.262h-89.292c-6.572,0-11.906,5.334-11.906,11.906s5.334,11.906,11.906,11.906h89.292
	c6.572,0,11.906-5.334,11.906-11.906S458.985,345.262,452.413,345.262z"/>
</svg>
