<?xml version="1.0" encoding="utf-8"?>
<!-- Generator: Adobe Illustrator 17.0.0, SVG Export Plug-In . SVG Version: 6.00 Build 0)  -->
<!DOCTYPE svg PUBLIC "-//W3C//DTD SVG 1.1//EN" "http://www.w3.org/Graphics/SVG/1.1/DTD/svg11.dtd">
<svg version="1.1" id="Layer_1" xmlns="http://www.w3.org/2000/svg" xmlns:xlink="http://www.w3.org/1999/xlink" x="0px" y="0px"
	 width="595.28px" height="398.838px" viewBox="0 0 595.28 398.838" enable-background="new 0 0 595.28 398.838"
	 xml:space="preserve">
<path d="M101.186,398.838h392.909c39.384,0,71.422-32.038,71.422-71.422V71.422C565.516,32.038,533.478,0,494.094,0H101.186
	C61.802,0,29.764,32.038,29.764,71.422v255.994C29.764,366.8,61.802,398.838,101.186,398.838z M53.575,71.422
	c0-26.252,21.359-47.611,47.61-47.611h392.909c26.252,0,47.611,21.359,47.611,47.611v255.994c0,26.252-21.359,47.611-47.611,47.611
	H101.186c-26.252,0-47.61-21.359-47.61-47.611V71.422z"/>
<path d="M105.132,96.525l187.114,121.431c1.97,1.28,4.226,1.917,6.483,1.917c2.274,0,4.554-0.649,6.536-1.953L490.201,96.489
	c5.494-3.607,7.03-10.995,3.417-16.489c-3.607-5.5-10.995-7.03-16.489-3.417L298.688,193.752L118.098,76.547
	c-5.518-3.584-12.894-2.012-16.471,3.506C98.049,85.571,99.614,92.941,105.132,96.525z"/>
</svg>
