<?xml version="1.0" encoding="utf-8"?>
<!-- Generator: Adobe Illustrator 17.0.0, SVG Export Plug-In . SVG Version: 6.00 Build 0)  -->
<!DOCTYPE svg PUBLIC "-//W3C//DTD SVG 1.1//EN" "http://www.w3.org/Graphics/SVG/1.1/DTD/svg11.dtd">
<svg version="1.1" id="Layer_1" xmlns="http://www.w3.org/2000/svg" xmlns:xlink="http://www.w3.org/1999/xlink" x="0px" y="0px"
	 width="595.28px" height="465.497px" viewBox="0 0 595.28 465.497" enable-background="new 0 0 595.28 465.497"
	 xml:space="preserve">
<path d="M558.2,231.302L330.809,11.328C323.07,3.31,312.73,0,301.682,0c0,0-0.006,0-0.012,0c-11.042,0-21.382,3.316-28.698,10.917
	l-235.808,221.2c-12.084,12.519-10.298,22.96-8.155,27.996c2.155,5.084,8.417,13.715,26.097,13.715h40.134l-0.107,179.947
	c0,6.572,5.322,11.715,11.9,11.721c0,0,0-0.095,0.006-0.095c6.572,0,11.906-5.375,11.906-11.947l0.113-192.27
	c0-3.161-1.25-5.822-3.482-8.054s-5.262-3.113-8.423-3.113H55.105c-0.691,0-1.298-0.405-1.839-0.446
	c0.19-0.214,0.393-0.631,0.619-0.869L289.699,26.853c3.203-3.322,7.453-5.197,11.977-5.197v-0.024c4.524,0,8.786,1.822,12.263,5.411
	l227.385,221.069c0.375,0.387,0.702,1.131,0.994,1.47c-0.524,0.03-1.125,0.435-1.798,0.435h-52.051
	c-6.566,0-11.894,4.935-11.906,11.501l-0.339,191.561c-0.012,6.572,5.31,11.239,11.888,11.239c0.006,0,0.012,0,0.018,0
	c6.566,0,11.894-4.441,11.906-11.007l0.321-179.483h40.169c17.674,0,23.936-8.905,26.091-13.983
	C568.754,254.81,570.546,244.095,558.2,231.302z"/>
<path d="M357.168,465.307c6.572,0,11.906-5.334,11.906-11.906V279.782c0-6.572-5.096-11.906-11.673-11.906H238.112
	c-6.572,0-11.906,5.334-11.906,11.906v173.619c0,6.572,5.334,11.906,11.906,11.906c6.572,0,11.906-5.334,11.906-11.906V291.687
	h95.245v161.714C345.262,459.979,350.596,465.307,357.168,465.307z"/>
</svg>
