<?xml version="1.0" encoding="utf-8"?>
<!-- Generator: Adobe Illustrator 17.0.0, SVG Export Plug-In . SVG Version: 6.00 Build 0)  -->
<!DOCTYPE svg PUBLIC "-//W3C//DTD SVG 1.1//EN" "http://www.w3.org/Graphics/SVG/1.1/DTD/svg11.dtd">
<svg version="1.1" id="Layer_1" xmlns="http://www.w3.org/2000/svg" xmlns:xlink="http://www.w3.org/1999/xlink" x="0px" y="0px"
	 width="595.28px" height="425.625px" viewBox="0 0 595.28 425.625" enable-background="new 0 0 595.28 425.625"
	 xml:space="preserve">
<path d="M273.829,0C168.792,0,83.339,85.452,83.339,190.49s85.452,190.49,190.49,190.49c46.729,0,89.554-16.942,122.735-44.967
	l86.125,86.125c2.322,2.328,5.369,3.488,8.417,3.488c3.048,0,6.096-1.161,8.417-3.488c4.649-4.649,4.649-12.185,0-16.835
	l-85.75-85.75c31.347-33.967,50.545-79.309,50.545-129.063C464.318,85.452,378.866,0,273.829,0z M107.15,190.49
	c0-91.905,74.773-166.678,166.678-166.678S440.507,98.584,440.507,190.49s-74.773,166.678-166.678,166.678
	S107.15,282.395,107.15,190.49z"/>
</svg>
