<?xml version="1.0" encoding="utf-8"?>
<!-- Generator: Adobe Illustrator 17.0.0, SVG Export Plug-In . SVG Version: 6.00 Build 0)  -->
<!DOCTYPE svg PUBLIC "-//W3C//DTD SVG 1.1//EN" "http://www.w3.org/Graphics/SVG/1.1/DTD/svg11.dtd">
<svg version="1.1" id="Layer_1" xmlns="http://www.w3.org/2000/svg" xmlns:xlink="http://www.w3.org/1999/xlink" x="0px" y="0px"
	 width="85.039px" height="56.693px" viewBox="0 0 85.039 56.693" enable-background="new 0 0 85.039 56.693" xml:space="preserve">
<path fill="#1E5A7D" d="M85.039,5.669c0,3.131-2.538,5.669-5.669,5.669H34.016c-3.131,0-5.669-2.538-5.669-5.669l0,0
	C28.346,2.538,30.885,0,34.016,0H79.37C82.501,0,85.039,2.538,85.039,5.669L85.039,5.669z"/>
<path fill="#1E5A7D" d="M56.693,51.024c0,3.131-2.538,5.669-5.669,5.669H5.669C2.538,56.693,0,54.155,0,51.024l0,0
	c0-3.131,2.538-5.669,5.669-5.669h45.354C54.155,45.354,56.693,47.893,56.693,51.024L56.693,51.024z"/>
<path fill="#1E5A7D" d="M56.693,28.346c0,3.131-2.538,5.669-5.669,5.669H34.016c-3.131,0-5.669-2.538-5.669-5.669l0,0
	c0-3.131,2.538-5.669,5.669-5.669h17.008C54.155,22.677,56.693,25.215,56.693,28.346L56.693,28.346z"/>
</svg>
